<?xml version="1.0" encoding="UTF-8" standalone="no"?><!DOCTYPE svg PUBLIC "-//W3C//DTD SVG 1.1//EN" "http://www.w3.org/Graphics/SVG/1.1/DTD/svg11.dtd"><svg width="100%" height="100%" viewBox="0 0 62 62" version="1.1" xmlns="http://www.w3.org/2000/svg" xmlns:xlink="http://www.w3.org/1999/xlink" xml:space="preserve" xmlns:serif="http://www.serif.com/" style="fill-rule:evenodd;clip-rule:evenodd;stroke-linecap:round;stroke-linejoin:round;stroke-miterlimit:1.5;"><g id="icon-only" serif:id="icon only"><g id="icon-only1" serif:id="icon-only"><g id="icon"><rect x="29.146" y="-0.042" width="3.149" height="61.44" style="fill:#fff;"/><path d="M18.433,21.461l-0.007,-4.311l5.77,-4.905l-5.766,-4.923l0.003,-4.293l-18.433,-0l-0,18.432l18.433,0" style="fill:#f12945;"/><circle cx="30.72" cy="12.245" r="3.046" style="fill:#fff;stroke:#fff;stroke-width:2.18px;"/><path d="M43.007,21.461l0.007,4.312l-5.77,4.905l5.766,4.922l-0.003,4.294l18.433,-0l0,-18.433l-18.433,0" style="fill:#01c5bd;"/><circle cx="30.72" cy="30.678" r="3.046" style="fill:#fff;stroke:#fff;stroke-width:2.18px;"/><path d="M18.433,58.326l-0.007,-4.311l5.77,-4.905l-5.766,-4.923l0.003,-4.293l-18.433,-0l-0,18.432l18.433,0" style="fill:#f12945;"/><circle cx="30.72" cy="49.11" r="3.046" style="fill:#fff;stroke:#fff;stroke-width:2.18px;"/></g></g></g></svg>